<svg width="23" height="23" viewBox="0 0 23 23" fill="none" xmlns="http://www.w3.org/2000/svg">
<path d="M7.07107 15.9289C7.26623 16.1241 7.58301 16.1241 7.77817 15.9289L14.8314 8.8757L14.703 14.149C14.6963 14.4247 14.9141 14.6542 15.1908 14.6611C15.4669 14.6678 15.696 14.4496 15.7027 14.1735L15.8493 8.15092C15.8493 7.88363 15.7453 7.63261 15.5563 7.44363C15.3675 7.25484 15.1164 7.15072 14.837 7.15107L8.82664 7.29744C8.55051 7.30416 8.33254 7.53344 8.33908 7.80939C8.34545 8.08551 8.57491 8.30365 8.85103 8.29694L14.1356 8.15728L7.07107 15.2218C6.8759 15.417 6.8759 15.7338 7.07107 15.9289Z" fill="#2D2D2D"/>
</svg>
